<?xml version="1.0" encoding="UTF-8"?>
<svg width="32" height="32" viewBox="0 0 32 32" fill="none" xmlns="http://www.w3.org/2000/svg">
  <path d="M16 4C9.37 4 4 9.37 4 16C4 22.63 9.37 28 16 28C22.63 28 28 22.63 28 16C28 9.37 22.63 4 16 4Z" fill="#4F46E5"/>

  <path d="M12 8L8 4L12 8Z" fill="#4F46E5"/>
  <path d="M20 8L24 4L20 8Z" fill="#4F46E5"/>

  <circle cx="12" cy="14" r="2" fill="white"/>
  <circle cx="20" cy="14" r="2" fill="white"/>

  <path d="M16 18L14 20H18L16 18Z" fill="#FF6B6B"/>

  <path d="M14 20C14 20 12 22 10 22" stroke="white" stroke-width="1"/>
  <path d="M18 20C18 20 20 22 22 22" stroke="white" stroke-width="1"/>
</svg>
